<svg viewBox="0 0 600 400" height="400" width="600" xmlns="http://www.w3.org/2000/svg" style="font-family:&quot;Lucida Grande&quot;, &quot;Lucida Sans Unicode&quot;, Arial, Helvetica, sans-serif;font-size:12px;" class="highcharts-root" version="1.1" xmlns:xlink="http://www.w3.org/1999/xlink"><desc>Created with Highcharts 8.2.0</desc><defs><clipPath id="highcharts-y4ptzr1-39-"><rect fill="none" height="332" width="580" y="0" x="0"></rect></clipPath><radialGradient id="highcharts-y4ptzr1-40" r="0.7" cy="0.3" cx="0.5"><stop stop-opacity="1" stop-color="#8EADAC" offset="0"></stop><stop stop-opacity="1" stop-color="rgb(117,148,147)" offset="1"></stop></radialGradient><radialGradient id="highcharts-y4ptzr1-41" r="0.7" cy="0.3" cx="0.5"><stop stop-opacity="1" stop-color="#DE9F73" offset="0"></stop><stop stop-opacity="1" stop-color="rgb(197,134,90)" offset="1"></stop></radialGradient><radialGradient gradientUnits="userSpaceOnUse" id="highcharts-y4ptzr1-42" r="173.6" cy="116.39999999999999" cx="290"><stop stop-opacity="1" stop-color="#8EADAC" offset="0"></stop><stop stop-opacity="1" stop-color="rgb(117,148,147)" offset="1"></stop></radialGradient><radialGradient gradientUnits="userSpaceOnUse" id="highcharts-y4ptzr1-43" r="173.6" cy="116.39999999999999" cx="290"><stop stop-opacity="1" stop-color="#DE9F73" offset="0"></stop><stop stop-opacity="1" stop-color="rgb(197,134,90)" offset="1"></stop></radialGradient></defs><rect ry="0" rx="0" height="400" width="600" y="0" x="0" class="highcharts-background" fill="#ffffff"></rect><rect height="332" width="580" y="53" x="10" class="highcharts-plot-background" fill="none"></rect><rect height="332" width="580" y="53" x="10" data-z-index="1" class="highcharts-plot-border" fill="none"></rect><g data-z-index="3" class="highcharts-series-group"><g transform="translate(10,53) scale(1 1)" opacity="1" data-z-index="0.1" class="highcharts-series highcharts-series-0 highcharts-pie-series"><path class="highcharts-point highcharts-color-0" stroke-linejoin="round" opacity="1" stroke-width="1" stroke="#ffffff" transform="translate(0,0)" d="M 289.9747445227418 42.000002571932015 A 124 124 0 1 1 286.2323463932688 42.05725198181345 L 290 166 A 0 0 0 1 0 290 166 Z" fill="url(#highcharts-y4ptzr1-42)"></path><path class="highcharts-point highcharts-color-1" stroke-linejoin="round" opacity="1" stroke-width="1" stroke="#ffffff" transform="translate(0,0)" d="M 286.3562910044566 42.05354630020351 A 124 124 0 0 1 289.8277664876791 42.00011961450433 L 290 166 A 0 0 0 0 0 290 166 Z" fill="url(#highcharts-y4ptzr1-43)"></path></g><g transform="translate(10,53) scale(1 1)" opacity="1" data-z-index="0.1" class="highcharts-markers highcharts-series-0 highcharts-pie-series"></g></g><text y="24" style="color:#333333;font-size:18px;fill:#333333;" data-z-index="4" class="highcharts-title" text-anchor="middle" x="300"><tspan>Abundance</tspan></text><text y="52" style="color:#666666;fill:#666666;" data-z-index="4" class="highcharts-subtitle" text-anchor="middle" x="300"></text><text y="397" style="color:#666666;fill:#666666;" data-z-index="4" class="highcharts-caption" text-anchor="start" x="10"></text><g transform="translate(10,53) scale(1 1)" opacity="1" data-z-index="6" class="highcharts-data-labels highcharts-series-0 highcharts-pie-series"><path d="M 297.2360497249731 319.9837656430945 C 292.2360497249731 319.9837656430945 291.974693263613 301.98566316533015 291.8875744431595 295.9862956727421 L 291.800455622706 289.986928180154" stroke-width="1" stroke="url(#highcharts-y4ptzr1-40)" class="highcharts-data-label-connector highcharts-color-0" fill="none"></path><path d="M 282.7639502750269 12.016234356905503 C 287.7639502750269 12.016234356905503 288.025306736387 30.01433683466979 288.1124255568405 36.01370432725789 L 288.199544377294 42.01307181984599" stroke-width="1" stroke="url(#highcharts-y4ptzr1-41)" class="highcharts-data-label-connector highcharts-color-1" fill="none"></path><g transform="translate(302,310)" data-z-index="1" class="highcharts-label highcharts-data-label highcharts-data-label-color-0 highcharts-tracker"><text style="color:black;cursor:pointer;font-size:11px;font-weight:bold;fill:black;" y="16" data-z-index="1" x="5"><tspan style="" stroke-linejoin="round" stroke-width="2px" stroke="#FFFFFF" fill="#FFFFFF" class="highcharts-text-outline" y="16" x="5">Kept : 4,460,289</tspan><tspan y="16" x="5">Kept : 4,460,289</tspan></text></g><g transform="translate(169,2)" data-z-index="1" class="highcharts-label highcharts-data-label highcharts-data-label-color-1 highcharts-tracker"><text style="color:black;cursor:pointer;font-size:11px;font-weight:bold;fill:black;" y="16" data-z-index="1" x="5"><tspan style="" stroke-linejoin="round" stroke-width="2px" stroke="#FFFFFF" fill="#FFFFFF" class="highcharts-text-outline" y="16" x="5">Removed : 20,711</tspan><tspan y="16" x="5">Removed : 20,711</tspan></text></g></g></svg>