<svg viewBox="0 0 600 400" height="400" width="600" xmlns="http://www.w3.org/2000/svg" style="font-family:&quot;Lucida Grande&quot;, &quot;Lucida Sans Unicode&quot;, Arial, Helvetica, sans-serif;font-size:12px;" class="highcharts-root" version="1.1" xmlns:xlink="http://www.w3.org/1999/xlink"><desc>Created with Highcharts 8.2.0</desc><defs><clipPath id="highcharts-pokihbf-40-"><rect fill="none" height="332" width="580" y="0" x="0"></rect></clipPath><radialGradient id="highcharts-pokihbf-41" r="0.7" cy="0.3" cx="0.5"><stop stop-opacity="1" stop-color="#8EADAC" offset="0"></stop><stop stop-opacity="1" stop-color="rgb(117,148,147)" offset="1"></stop></radialGradient><radialGradient id="highcharts-pokihbf-42" r="0.7" cy="0.3" cx="0.5"><stop stop-opacity="1" stop-color="#DE9F73" offset="0"></stop><stop stop-opacity="1" stop-color="rgb(197,134,90)" offset="1"></stop></radialGradient><radialGradient gradientUnits="userSpaceOnUse" id="highcharts-pokihbf-43" r="173.6" cy="116.39999999999999" cx="290"><stop stop-opacity="1" stop-color="#8EADAC" offset="0"></stop><stop stop-opacity="1" stop-color="rgb(117,148,147)" offset="1"></stop></radialGradient><radialGradient gradientUnits="userSpaceOnUse" id="highcharts-pokihbf-44" r="173.6" cy="116.39999999999999" cx="290"><stop stop-opacity="1" stop-color="#DE9F73" offset="0"></stop><stop stop-opacity="1" stop-color="rgb(197,134,90)" offset="1"></stop></radialGradient></defs><rect ry="0" rx="0" height="400" width="600" y="0" x="0" class="highcharts-background" fill="#ffffff"></rect><rect height="332" width="580" y="53" x="10" class="highcharts-plot-background" fill="none"></rect><rect height="332" width="580" y="53" x="10" data-z-index="1" class="highcharts-plot-border" fill="none"></rect><g data-z-index="3" class="highcharts-series-group"><g transform="translate(10,53) scale(1 1)" opacity="1" data-z-index="0.1" class="highcharts-series highcharts-series-0 highcharts-pie-series"><path class="highcharts-point highcharts-color-0" stroke-linejoin="round" opacity="1" stroke-width="1" stroke="#ffffff" transform="translate(0,0)" d="M 289.9747445227418 42.000002571932015 A 124 124 0 1 1 282.02128231535886 42.25695953263151 L 290 166 A 0 0 0 1 0 290 166 Z" fill="url(#highcharts-pokihbf-43)"></path><path class="highcharts-point highcharts-color-1" stroke-linejoin="round" opacity="1" stroke-width="1" stroke="#ffffff" transform="translate(0,0)" d="M 282.14502932456094 42.24904268779173 A 124 124 0 0 1 289.8277664876791 42.00011961450433 L 290 166 A 0 0 0 0 0 290 166 Z" fill="url(#highcharts-pokihbf-44)"></path></g><g transform="translate(10,53) scale(1 1)" opacity="1" data-z-index="0.1" class="highcharts-markers highcharts-series-0 highcharts-pie-series"></g></g><text y="24" style="color:#333333;font-size:18px;fill:#333333;" data-z-index="4" class="highcharts-title" text-anchor="middle" x="300"><tspan>Abundance</tspan></text><text y="52" style="color:#666666;fill:#666666;" data-z-index="4" class="highcharts-subtitle" text-anchor="middle" x="300"></text><text y="397" style="color:#666666;fill:#666666;" data-z-index="4" class="highcharts-caption" text-anchor="start" x="10"></text><g transform="translate(10,53) scale(1 1)" opacity="1" data-z-index="6" class="highcharts-data-labels highcharts-series-0 highcharts-pie-series"><path d="M 299.8504955537161 319.92359368492987 C 294.8504955537161 319.92359368492987 294.28355451496947 301.9325242931848 294.09457416872084 295.93550116260315 L 293.9055938224722 289.93847803202146" stroke-width="1" stroke="url(#highcharts-pokihbf-41)" class="highcharts-data-label-connector highcharts-color-0" fill="none"></path><path d="M 280.1495044462839 12.076406315070116 C 285.1495044462839 12.076406315070116 285.7164454850303 30.067475706815173 285.905425831279 36.064498837396854 L 286.0944061775277 42.061521967978535" stroke-width="1" stroke="url(#highcharts-pokihbf-42)" class="highcharts-data-label-connector highcharts-color-1" fill="none"></path><g transform="translate(305,310)" data-z-index="1" class="highcharts-label highcharts-data-label highcharts-data-label-color-0 highcharts-tracker"><text style="color:black;cursor:pointer;font-size:11px;font-weight:bold;fill:black;" y="16" data-z-index="1" x="5"><tspan style="" stroke-linejoin="round" stroke-width="2px" stroke="#FFFFFF" fill="#FFFFFF" class="highcharts-text-outline" y="16" x="5">Kept : 4,415,564</tspan><tspan y="16" x="5">Kept : 4,415,564</tspan></text></g><g transform="translate(167,2)" data-z-index="1" class="highcharts-label highcharts-data-label highcharts-data-label-color-1 highcharts-tracker"><text style="color:black;cursor:pointer;font-size:11px;font-weight:bold;fill:black;" y="16" data-z-index="1" x="5"><tspan style="" stroke-linejoin="round" stroke-width="2px" stroke="#FFFFFF" fill="#FFFFFF" class="highcharts-text-outline" y="16" x="5">Removed : 44,725</tspan><tspan y="16" x="5">Removed : 44,725</tspan></text></g></g></svg>