<svg viewBox="0 0 600 400" height="400" width="600" xmlns="http://www.w3.org/2000/svg" style="font-family:&quot;Lucida Grande&quot;, &quot;Lucida Sans Unicode&quot;, Arial, Helvetica, sans-serif;font-size:12px;" class="highcharts-root" version="1.1" xmlns:xlink="http://www.w3.org/1999/xlink"><desc>Created with Highcharts 8.2.0</desc><defs><clipPath id="highcharts-6k9qb58-33-"><rect fill="none" height="332" width="580" y="0" x="0"></rect></clipPath></defs><rect ry="0" rx="0" height="400" width="600" y="0" x="0" class="highcharts-background" fill="#ffffff"></rect><rect height="332" width="580" y="53" x="10" class="highcharts-plot-background" fill="none"></rect><rect height="332" width="580" y="53" x="10" data-z-index="1" class="highcharts-plot-border" fill="none"></rect><g data-z-index="3" class="highcharts-series-group"><g transform="translate(10,53) scale(1 1)" opacity="1" data-z-index="0.1" class="highcharts-series highcharts-series-0 highcharts-pie-series"><path class="highcharts-point highcharts-color-0" stroke-linejoin="round" opacity="1" stroke-width="1" stroke="#ffffff" transform="translate(0,0)" d="M 289.9747445227418 42.000002571932015 A 124 124 0 1 1 289.70376671407706 42.000353847922966 L 290 166 A 0 0 0 1 0 290 166 Z" fill="#8EADAC"></path><path class="highcharts-point highcharts-color-1" stroke-linejoin="round" opacity="1" stroke-width="1" stroke="#ffffff" transform="translate(0,0)" d="M 289.82776648767924 42.00011961450433 A 124 124 0 0 1 289.8277664876791 42.00011961450433 L 290 166 A 0 0 0 0 0 290 166 Z" fill="#DE9F73"></path></g><g transform="translate(10,53) scale(1 1)" opacity="1" data-z-index="0.1" class="highcharts-markers highcharts-series-0 highcharts-pie-series"></g></g><text y="24" style="color:#333333;font-size:18px;fill:#333333;" data-z-index="4" class="highcharts-title" text-anchor="middle" x="300"><tspan>ASVs affiliation</tspan></text><text y="52" style="color:#666666;fill:#666666;" data-z-index="4" class="highcharts-subtitle" text-anchor="middle" x="300"></text><text y="397" style="color:#666666;fill:#666666;" data-z-index="4" class="highcharts-caption" text-anchor="start" x="10"></text><g transform="translate(10,53) scale(1 1)" opacity="1" data-z-index="6" class="highcharts-data-labels highcharts-series-0 highcharts-pie-series"><path d="M 295.1349526378325 319.99994086942223 C 290.1349526378325 319.99994086942223 290.1191789529161 301.9999477807885 290.11392105793453 295.9999500845772 L 290.10866316295295 289.99995238836595" stroke-width="1" stroke="#8EADAC" class="highcharts-data-label-connector highcharts-color-0" fill="none"></path><path d="M 284.86504736214795 12.000059130577785 C 289.86504736214795 12.000059130577785 289.8808210470838 30.000052219211554 289.8860789420654 36.00004991542281 L 289.891336837047 42.00004761163406" stroke-width="1" stroke="#DE9F73" class="highcharts-data-label-connector highcharts-color-1" fill="none"></path><g transform="translate(300,310)" data-z-index="1" class="highcharts-label highcharts-data-label highcharts-data-label-color-0 highcharts-tracker"><text style="color:black;cursor:pointer;font-size:11px;font-weight:bold;fill:black;" y="16" data-z-index="1" x="5"><tspan style="" stroke-linejoin="round" stroke-width="2px" stroke="#FFFFFF" fill="#FFFFFF" class="highcharts-text-outline" y="16" x="5">With affiliation : 7,168</tspan><tspan y="16" x="5">With affiliation : 7,168</tspan></text></g><g transform="translate(155,2)" data-z-index="1" class="highcharts-label highcharts-data-label highcharts-data-label-color-1 highcharts-tracker"><text style="color:black;cursor:pointer;font-size:11px;font-weight:bold;fill:black;" y="16" data-z-index="1" x="5"><tspan style="" stroke-linejoin="round" stroke-width="2px" stroke="#FFFFFF" fill="#FFFFFF" class="highcharts-text-outline" y="16" x="5">Without affiliation : 2</tspan><tspan y="16" x="5">Without affiliation : 2</tspan></text></g></g></svg>