<svg viewBox="0 0 600 400" height="400" width="600" xmlns="http://www.w3.org/2000/svg" style="font-family:&quot;Lucida Grande&quot;, &quot;Lucida Sans Unicode&quot;, Arial, Helvetica, sans-serif;font-size:12px;" class="highcharts-root" version="1.1" xmlns:xlink="http://www.w3.org/1999/xlink"><desc>Created with Highcharts 8.2.0</desc><defs><clipPath id="highcharts-o68qrz7-350-"><rect fill="none" height="310" width="509" y="0" x="0"></rect></clipPath></defs><rect ry="0" rx="0" height="400" width="600" y="0" x="0" class="highcharts-background" fill="#ffffff"></rect><rect height="310" width="509" y="53" x="81" class="highcharts-plot-background" fill="none"></rect><g data-z-index="0" class="highcharts-pane-group"></g><g data-z-index="1" class="highcharts-grid highcharts-xaxis-grid"><path opacity="1" d="M 589.5 53 L 589.5 363" class="highcharts-grid-line" data-z-index="1" fill="none"></path><path opacity="1" d="M 80.5 53 L 80.5 363" class="highcharts-grid-line" data-z-index="1" fill="none"></path></g><g data-z-index="1" class="highcharts-grid highcharts-yaxis-grid"><path opacity="1" d="M 81 363.5 L 590 363.5" class="highcharts-grid-line" data-z-index="1" stroke-width="1" stroke="#e6e6e6" fill="none"></path><path opacity="1" d="M 81 311.5 L 590 311.5" class="highcharts-grid-line" data-z-index="1" stroke-width="1" stroke="#e6e6e6" fill="none"></path><path opacity="1" d="M 81 260.5 L 590 260.5" class="highcharts-grid-line" data-z-index="1" stroke-width="1" stroke="#e6e6e6" fill="none"></path><path opacity="1" d="M 81 208.5 L 590 208.5" class="highcharts-grid-line" data-z-index="1" stroke-width="1" stroke="#e6e6e6" fill="none"></path><path opacity="1" d="M 81 156.5 L 590 156.5" class="highcharts-grid-line" data-z-index="1" stroke-width="1" stroke="#e6e6e6" fill="none"></path><path opacity="1" d="M 81 105.5 L 590 105.5" class="highcharts-grid-line" data-z-index="1" stroke-width="1" stroke="#e6e6e6" fill="none"></path><path opacity="1" d="M 81 52.5 L 590 52.5" class="highcharts-grid-line" data-z-index="1" stroke-width="1" stroke="#e6e6e6" fill="none"></path></g><rect height="310" width="509" y="53" x="81" data-z-index="1" class="highcharts-plot-border" fill="none"></rect><g data-z-index="2" class="highcharts-axis highcharts-xaxis"><path d="M 81 363.5 L 590 363.5" data-z-index="7" stroke-width="1" stroke="#ccd6eb" class="highcharts-axis-line" fill="none"></path></g><g data-z-index="2" class="highcharts-axis highcharts-yaxis"><text y="208" style="color:#666666;fill:#666666;" class="highcharts-axis-title" transform="translate(0,0) rotate(270 26.13330078125 208)" text-anchor="middle" data-z-index="7" x="26.13330078125"><tspan>Cluster size</tspan></text><path d="M 81 53 L 81 363" data-z-index="7" class="highcharts-axis-line" fill="none"></path></g><g data-z-index="3" class="highcharts-series-group"><g clip-path="url(#highcharts-o68qrz7-350-)" transform="translate(81,53) scale(1 1)" opacity="1" data-z-index="0.1" class="highcharts-series highcharts-series-0 highcharts-boxplot-series highcharts-color-0"><g class="highcharts-point"><path d="M 254.5 309 L 254.5 34 M 254.5 309 L 254.5 309" stroke-width="1" stroke="#8EADAC" class="highcharts-boxplot-stem" fill="none"></path><path d="M 193 34 L 316 34 M 193 309 L 316 309" stroke-width="2" stroke="#8EADAC" class="highcharts-boxplot-whisker" fill="none"></path><path d="M 131.5 309.5 L 131.5 309.5 L 376.5 309.5 L 376.5 309.5 L 131.5 309.5 Z" stroke-width="1" stroke="#8EADAC" class="highcharts-boxplot-box" fill="#ffffff"></path><path d="M 131.5 310 L 376.5 310" stroke-width="2" stroke="#8EADAC" class="highcharts-boxplot-median" fill="none"></path></g></g><g clip-path="none" transform="translate(81,53) scale(1 1)" opacity="1" data-z-index="0.1" class="highcharts-markers highcharts-series-0 highcharts-boxplot-series highcharts-color-0"></g></g><text y="24" style="color:#333333;font-size:18px;fill:#333333;" data-z-index="4" class="highcharts-title" text-anchor="middle" x="300"><tspan>Clusters size distribution</tspan></text><text y="52" style="color:#666666;fill:#666666;" data-z-index="4" class="highcharts-subtitle" text-anchor="middle" x="300"></text><text y="397" style="color:#666666;fill:#666666;" data-z-index="4" class="highcharts-caption" text-anchor="start" x="10"></text><g data-z-index="7" class="highcharts-axis-labels highcharts-xaxis-labels"><text opacity="1" y="382" transform="translate(0,0)" text-anchor="middle" style="color:#666666;cursor:default;font-size:11px;fill:#666666;" x="335.5">All</text></g><g data-z-index="7" class="highcharts-axis-labels highcharts-yaxis-labels"><text opacity="1" y="367" transform="translate(0,0)" text-anchor="end" style="color:#666666;cursor:default;font-size:11px;fill:#666666;" x="66">0</text><text opacity="1" y="315" transform="translate(0,0)" text-anchor="end" style="color:#666666;cursor:default;font-size:11px;fill:#666666;" x="66">100k</text><text opacity="1" y="264" transform="translate(0,0)" text-anchor="end" style="color:#666666;cursor:default;font-size:11px;fill:#666666;" x="66">200k</text><text opacity="1" y="212" transform="translate(0,0)" text-anchor="end" style="color:#666666;cursor:default;font-size:11px;fill:#666666;" x="66">300k</text><text opacity="1" y="160" transform="translate(0,0)" text-anchor="end" style="color:#666666;cursor:default;font-size:11px;fill:#666666;" x="66">400k</text><text opacity="1" y="109" transform="translate(0,0)" text-anchor="end" style="color:#666666;cursor:default;font-size:11px;fill:#666666;" x="66">500k</text><text opacity="1" y="57" transform="translate(0,0)" text-anchor="end" style="color:#666666;cursor:default;font-size:11px;fill:#666666;" x="66">600k</text></g></svg>