<svg viewBox="0 0 600 400" height="400" width="600" xmlns="http://www.w3.org/2000/svg" style="font-family:&quot;Lucida Grande&quot;, &quot;Lucida Sans Unicode&quot;, Arial, Helvetica, sans-serif;font-size:12px;" class="highcharts-root" version="1.1" xmlns:xlink="http://www.w3.org/1999/xlink"><desc>Created with Highcharts 8.2.0</desc><defs><clipPath id="highcharts-y4ptzr1-27-"><rect fill="none" height="332" width="580" y="0" x="0"></rect></clipPath><radialGradient id="highcharts-y4ptzr1-28" r="0.7" cy="0.3" cx="0.5"><stop stop-opacity="1" stop-color="#8EADAC" offset="0"></stop><stop stop-opacity="1" stop-color="rgb(117,148,147)" offset="1"></stop></radialGradient><radialGradient id="highcharts-y4ptzr1-29" r="0.7" cy="0.3" cx="0.5"><stop stop-opacity="1" stop-color="#DE9F73" offset="0"></stop><stop stop-opacity="1" stop-color="rgb(197,134,90)" offset="1"></stop></radialGradient><radialGradient gradientUnits="userSpaceOnUse" id="highcharts-y4ptzr1-30" r="180.6" cy="114.39999999999999" cx="290"><stop stop-opacity="1" stop-color="#8EADAC" offset="0"></stop><stop stop-opacity="1" stop-color="rgb(117,148,147)" offset="1"></stop></radialGradient><radialGradient gradientUnits="userSpaceOnUse" id="highcharts-y4ptzr1-31" r="180.6" cy="114.39999999999999" cx="290"><stop stop-opacity="1" stop-color="#DE9F73" offset="0"></stop><stop stop-opacity="1" stop-color="rgb(197,134,90)" offset="1"></stop></radialGradient></defs><rect ry="0" rx="0" height="400" width="600" y="0" x="0" class="highcharts-background" fill="#ffffff"></rect><rect height="332" width="580" y="53" x="10" class="highcharts-plot-background" fill="none"></rect><rect height="332" width="580" y="53" x="10" data-z-index="1" class="highcharts-plot-border" fill="none"></rect><g data-z-index="3" class="highcharts-series-group"><g transform="translate(10,53) scale(1 1)" opacity="1" data-z-index="0.1" class="highcharts-series highcharts-series-0 highcharts-pie-series"><path class="highcharts-point highcharts-color-0" stroke-linejoin="round" opacity="1" stroke-width="1" stroke="#ffffff" transform="translate(0,0)" d="M 289.97372615672333 37.00000267563894 A 129 129 0 1 1 228.44990470043066 52.63075474973853 L 290 166 A 0 0 0 1 0 290 166 Z" fill="url(#highcharts-y4ptzr1-30)"></path><path class="highcharts-point highcharts-color-1" stroke-linejoin="round" opacity="1" stroke-width="1" stroke="#ffffff" transform="translate(0,0)" d="M 228.56330470183119 52.569261349315184 A 129 129 0 0 1 289.82082158798875 37.000124437669825 L 290 166 A 0 0 0 0 0 290 166 Z" fill="url(#highcharts-y4ptzr1-31)"></path></g><g transform="translate(10,53) scale(1 1)" opacity="1" data-z-index="0.1" class="highcharts-markers highcharts-series-0 highcharts-pie-series"></g></g><text y="24" style="color:#333333;font-size:18px;fill:#333333;" data-z-index="4" class="highcharts-title" text-anchor="middle" x="300"><tspan>Clusters</tspan></text><text y="52" style="color:#666666;fill:#666666;" data-z-index="4" class="highcharts-subtitle" text-anchor="middle" x="300"></text><text y="397" style="color:#666666;fill:#666666;" data-z-index="4" class="highcharts-caption" text-anchor="start" x="10"></text><g transform="translate(10,53) scale(1 1)" opacity="1" data-z-index="6" class="highcharts-data-labels highcharts-series-0 highcharts-pie-series"><path d="M 334.03897726543784 320.1329239781969 C 329.03897726543784 320.1329239781969 324.61947040519965 302.68391371651427 323.1463014517869 296.86757696262003 L 321.6731324983741 291.0512402087258" stroke-width="1" stroke="url(#highcharts-y4ptzr1-28)" class="highcharts-data-label-connector highcharts-color-0" fill="none"></path><path d="M 245.96102273456208 11.867076021803118 C 250.96102273456208 11.867076021803118 255.3805295948003 29.316086283485788 256.85369854821306 35.13242303738001 L 258.3268675016258 40.94875979127423" stroke-width="1" stroke="url(#highcharts-y4ptzr1-29)" class="highcharts-data-label-connector highcharts-color-1" fill="none"></path><g transform="translate(339,310)" data-z-index="1" class="highcharts-label highcharts-data-label highcharts-data-label-color-0 highcharts-tracker"><text style="color:black;cursor:pointer;font-size:11px;font-weight:bold;fill:black;" y="16" data-z-index="1" x="5"><tspan style="" stroke-linejoin="round" stroke-width="2px" stroke="#FFFFFF" fill="#FFFFFF" class="highcharts-text-outline" y="16" x="5">Kept : 51,895</tspan><tspan y="16" x="5">Kept : 51,895</tspan></text></g><g transform="translate(138,2)" data-z-index="1" class="highcharts-label highcharts-data-label highcharts-data-label-color-1 highcharts-tracker"><text style="color:black;cursor:pointer;font-size:11px;font-weight:bold;fill:black;" y="16" data-z-index="1" x="5"><tspan style="" stroke-linejoin="round" stroke-width="2px" stroke="#FFFFFF" fill="#FFFFFF" class="highcharts-text-outline" y="16" x="5">Removed : 4,449</tspan><tspan y="16" x="5">Removed : 4,449</tspan></text></g></g></svg>