<svg viewBox="0 0 600 400" height="400" width="600" xmlns="http://www.w3.org/2000/svg" style="font-family:&quot;Lucida Grande&quot;, &quot;Lucida Sans Unicode&quot;, Arial, Helvetica, sans-serif;font-size:12px;" class="highcharts-root" version="1.1" xmlns:xlink="http://www.w3.org/1999/xlink"><desc>Created with Highcharts 8.2.0</desc><defs><clipPath id="highcharts-pokihbf-29-"><rect fill="none" height="332" width="580" y="0" x="0"></rect></clipPath><radialGradient id="highcharts-pokihbf-30" r="0.7" cy="0.3" cx="0.5"><stop stop-opacity="1" stop-color="#8EADAC" offset="0"></stop><stop stop-opacity="1" stop-color="rgb(117,148,147)" offset="1"></stop></radialGradient><radialGradient id="highcharts-pokihbf-31" r="0.7" cy="0.3" cx="0.5"><stop stop-opacity="1" stop-color="#DE9F73" offset="0"></stop><stop stop-opacity="1" stop-color="rgb(197,134,90)" offset="1"></stop></radialGradient><radialGradient gradientUnits="userSpaceOnUse" id="highcharts-pokihbf-32" r="196" cy="110" cx="290"><stop stop-opacity="1" stop-color="#8EADAC" offset="0"></stop><stop stop-opacity="1" stop-color="rgb(117,148,147)" offset="1"></stop></radialGradient><radialGradient gradientUnits="userSpaceOnUse" id="highcharts-pokihbf-33" r="196" cy="110" cx="290"><stop stop-opacity="1" stop-color="#DE9F73" offset="0"></stop><stop stop-opacity="1" stop-color="rgb(197,134,90)" offset="1"></stop></radialGradient></defs><rect ry="0" rx="0" height="400" width="600" y="0" x="0" class="highcharts-background" fill="#ffffff"></rect><rect height="332" width="580" y="53" x="10" class="highcharts-plot-background" fill="none"></rect><rect height="332" width="580" y="53" x="10" data-z-index="1" class="highcharts-plot-border" fill="none"></rect><g data-z-index="3" class="highcharts-series-group"><g transform="translate(10,53) scale(1 1)" opacity="1" data-z-index="0.1" class="highcharts-series highcharts-series-0 highcharts-pie-series"><path class="highcharts-point highcharts-color-0" stroke-linejoin="round" opacity="1" stroke-width="1" stroke="#ffffff" transform="translate(0,0)" d="M 289.9714857514827 26.00000290379421 A 140 140 0 0 1 396.7162886548987 75.38193482685503 L 290 166 A 0 0 0 0 0 290 166 Z" fill="url(#highcharts-pokihbf-32)"></path><path class="highcharts-point highcharts-color-1" stroke-linejoin="round" opacity="1" stroke-width="1" stroke="#ffffff" transform="translate(0,0)" d="M 396.8068533468289 75.4886964067527 A 140 140 0 1 1 289.80554280867 26.000135048633922 L 290 166 A 0 0 0 1 0 290 166 Z" fill="url(#highcharts-pokihbf-33)"></path></g><g transform="translate(10,53) scale(1 1)" opacity="1" data-z-index="0.1" class="highcharts-markers highcharts-series-0 highcharts-pie-series"></g></g><text y="24" style="color:#333333;font-size:18px;fill:#333333;" data-z-index="4" class="highcharts-title" text-anchor="middle" x="300"><tspan>ASVs</tspan></text><text y="52" style="color:#666666;fill:#666666;" data-z-index="4" class="highcharts-subtitle" text-anchor="middle" x="300"></text><text y="397" style="color:#666666;fill:#666666;" data-z-index="4" class="highcharts-caption" text-anchor="start" x="10"></text><g transform="translate(10,53) scale(1 1)" opacity="1" data-z-index="6" class="highcharts-data-labels highcharts-series-0 highcharts-pie-series"><path d="M 366.4938547099955 11.76437266731769 C 361.4938547099955 11.76437266731769 353.9239171524666 28.095203796660527 351.40060463329024 33.538814173108136 L 348.8772921141139 38.982424549555745" stroke-width="1" stroke="url(#highcharts-pokihbf-30)" class="highcharts-data-label-connector highcharts-color-0" fill="none"></path><path d="M 213.50614529000458 320.2356273326823 C 218.50614529000458 320.2356273326823 226.0760828475335 303.9047962033395 228.5993953667098 298.4611858268919 L 231.12270788588611 293.01757545044427" stroke-width="1" stroke="url(#highcharts-pokihbf-31)" class="highcharts-data-label-connector highcharts-color-1" fill="none"></path><g transform="translate(371,2)" data-z-index="1" class="highcharts-label highcharts-data-label highcharts-data-label-color-0 highcharts-tracker"><text style="color:black;cursor:pointer;font-size:11px;font-weight:bold;fill:black;" y="16" data-z-index="1" x="5"><tspan style="" stroke-linejoin="round" stroke-width="2px" stroke="#FFFFFF" fill="#FFFFFF" class="highcharts-text-outline" y="16" x="5">Kept : 7,170</tspan><tspan y="16" x="5">Kept : 7,170</tspan></text></g><g transform="translate(100,310)" data-z-index="1" class="highcharts-label highcharts-data-label highcharts-data-label-color-1 highcharts-tracker"><text style="color:black;cursor:pointer;font-size:11px;font-weight:bold;fill:black;" y="16" data-z-index="1" x="5"><tspan style="" stroke-linejoin="round" stroke-width="2px" stroke="#FFFFFF" fill="#FFFFFF" class="highcharts-text-outline" y="16" x="5">Removed : 44,725</tspan><tspan y="16" x="5">Removed : 44,725</tspan></text></g></g></svg>