<svg viewBox="0 0 600 400" height="400" width="600" xmlns="http://www.w3.org/2000/svg" style="font-family:&quot;Lucida Grande&quot;, &quot;Lucida Sans Unicode&quot;, Arial, Helvetica, sans-serif;font-size:12px;" class="highcharts-root" version="1.1" xmlns:xlink="http://www.w3.org/1999/xlink"><desc>Created with Highcharts 8.2.0</desc><defs><clipPath id="highcharts-1e12gjr-30-"><rect fill="none" height="332" width="580" y="0" x="0"></rect></clipPath><radialGradient id="highcharts-1e12gjr-31" r="0.7" cy="0.3" cx="0.5"><stop stop-opacity="1" stop-color="#8EADAC" offset="0"></stop><stop stop-opacity="1" stop-color="rgb(117,148,147)" offset="1"></stop></radialGradient><radialGradient id="highcharts-1e12gjr-32" r="0.7" cy="0.3" cx="0.5"><stop stop-opacity="1" stop-color="#DE9F73" offset="0"></stop><stop stop-opacity="1" stop-color="rgb(197,134,90)" offset="1"></stop></radialGradient><radialGradient gradientUnits="userSpaceOnUse" id="highcharts-1e12gjr-33" r="175" cy="116" cx="290"><stop stop-opacity="1" stop-color="#8EADAC" offset="0"></stop><stop stop-opacity="1" stop-color="rgb(117,148,147)" offset="1"></stop></radialGradient><radialGradient gradientUnits="userSpaceOnUse" id="highcharts-1e12gjr-34" r="175" cy="116" cx="290"><stop stop-opacity="1" stop-color="#DE9F73" offset="0"></stop><stop stop-opacity="1" stop-color="rgb(197,134,90)" offset="1"></stop></radialGradient></defs><rect ry="0" rx="0" height="400" width="600" y="0" x="0" class="highcharts-background" fill="#ffffff"></rect><rect height="332" width="580" y="53" x="10" class="highcharts-plot-background" fill="none"></rect><rect height="332" width="580" y="53" x="10" data-z-index="1" class="highcharts-plot-border" fill="none"></rect><g data-z-index="3" class="highcharts-series-group"><g transform="translate(10,53) scale(1 1)" opacity="1" data-z-index="0.1" class="highcharts-series highcharts-series-0 highcharts-pie-series"><path class="highcharts-point highcharts-color-0" stroke-linejoin="round" opacity="1" stroke-width="1" stroke="#ffffff" transform="translate(0,0)" d="M 289.97454084953813 41.0000025926734 A 125 125 0 0 1 313.82782373051964 43.29207516925695 L 290 166 A 0 0 0 0 0 290 166 Z" fill="url(#highcharts-1e12gjr-33)"></path><path class="highcharts-point highcharts-color-1" stroke-linejoin="round" opacity="1" stroke-width="1" stroke="#ffffff" transform="translate(0,0)" d="M 313.95051972098815 43.31596434297347 A 125 125 0 1 1 289.82637750774103 41.00012057913743 L 290 166 A 0 0 0 1 0 290 166 Z" fill="url(#highcharts-1e12gjr-34)"></path></g><g transform="translate(10,53) scale(1 1)" opacity="1" data-z-index="0.1" class="highcharts-markers highcharts-series-0 highcharts-pie-series"></g></g><text y="24" style="color:#333333;font-size:18px;fill:#333333;" data-z-index="4" class="highcharts-title" text-anchor="middle" x="300"><tspan>ASVs</tspan></text><text y="52" style="color:#666666;fill:#666666;" data-z-index="4" class="highcharts-subtitle" text-anchor="middle" x="300"></text><text y="397" style="color:#666666;fill:#666666;" data-z-index="4" class="highcharts-caption" text-anchor="start" x="10"></text><g transform="translate(10,53) scale(1 1)" opacity="1" data-z-index="6" class="highcharts-data-labels highcharts-series-0 highcharts-pie-series"><path d="M 309.89619675743927 11.71745619752165 C 304.89619675743927 11.71745619752165 303.1663158436724 29.634138703615903 302.5896888724167 35.606366205647326 L 302.01306190116094 41.57859370767875" stroke-width="1" stroke="url(#highcharts-1e12gjr-31)" class="highcharts-data-label-connector highcharts-color-0" fill="none"></path><path d="M 270.10380324256073 320.28254380247836 C 275.10380324256073 320.28254380247836 276.83368415632765 302.36586129638414 277.4103111275834 296.3936337943527 L 277.9869380988391 290.42140629232125" stroke-width="1" stroke="url(#highcharts-1e12gjr-32)" class="highcharts-data-label-connector highcharts-color-1" fill="none"></path><g transform="translate(315,2)" data-z-index="1" class="highcharts-label highcharts-data-label highcharts-data-label-color-0 highcharts-tracker"><text style="color:black;cursor:pointer;font-size:11px;font-weight:bold;fill:black;" y="16" data-z-index="1" x="5"><tspan style="" stroke-linejoin="round" stroke-width="2px" stroke="#FFFFFF" fill="#FFFFFF" class="highcharts-text-outline" y="16" x="5">Kept : 108</tspan><tspan y="16" x="5">Kept : 108</tspan></text></g><g transform="translate(162,310)" data-z-index="1" class="highcharts-label highcharts-data-label highcharts-data-label-color-1 highcharts-tracker"><text style="color:black;cursor:pointer;font-size:11px;font-weight:bold;fill:black;" y="16" data-z-index="1" x="5"><tspan style="" stroke-linejoin="round" stroke-width="2px" stroke="#FFFFFF" fill="#FFFFFF" class="highcharts-text-outline" y="16" x="5">Removed : 3,417</tspan><tspan y="16" x="5">Removed : 3,417</tspan></text></g></g></svg>